<svg width="69" height="121" viewBox="0 0 69 121" fill="none" xmlns="http://www.w3.org/2000/svg">
<path d="M37.4926 120.21C35.2196 119.916 32.9856 118.892 31.6589 117.537C30.6878 116.546 30.2134 115.742 29.877 114.521C29.6972 113.868 29.6751 113.477 29.6256 110.06C29.5722 106.382 29.5675 106.309 29.3595 105.975C29.1546 105.646 28.9153 105.503 28.376 105.385L28.1182 105.329V110.293V115.257H26.0559H23.9935V104.63V94.0036L26.4543 94.0067C27.8077 94.0085 29.3369 94.0483 29.8525 94.0952C32.0345 94.2939 33.1708 95.0168 33.6071 96.4837C33.7942 97.1127 33.8823 99.4573 33.7591 100.527C33.7046 101 33.5708 101.594 33.4617 101.847C33.0814 102.73 32.1397 103.403 31.1152 103.524C30.3209 103.618 30.4123 103.756 31.3524 103.881C32.2765 104.004 33.0185 104.47 33.3667 105.146C33.7075 105.807 33.7472 106.22 33.7729 109.377C33.798 112.452 33.8017 112.505 34.0417 113.22C34.3504 114.14 34.7385 114.742 35.4387 115.39C36.4919 116.364 37.7349 116.775 39.6718 116.791L40.8666 116.801L40.867 118.497L40.8674 120.192L40.2912 120.252C39.5495 120.33 38.2687 120.31 37.4926 120.21ZM29.092 102.434C29.5847 102.247 29.63 101.982 29.5993 99.4681L29.5713 97.1703L29.3082 96.9445C29.107 96.7717 28.9364 96.7187 28.5817 96.7187H28.1182V99.6211V102.524H28.4871C28.69 102.524 28.9622 102.483 29.092 102.434ZM17.0314 115.626C14.9025 115.331 13.8043 114.262 13.4346 112.122C13.3223 111.472 13.3045 110.117 13.331 104.239C13.3602 97.757 13.3775 97.0916 13.5301 96.5834C14.1696 94.4523 15.4957 93.6027 18.1814 93.6033C21.0095 93.6039 22.3193 94.462 22.9365 96.7187C23.0893 97.2774 23.1029 97.9258 23.1029 104.63C23.1029 111.334 23.0893 111.983 22.9365 112.541C22.474 114.233 21.6533 115.084 20.0936 115.489C19.4091 115.667 17.8388 115.737 17.0314 115.626ZM18.735 112.363C18.8627 112.236 18.9314 111.988 18.9758 111.497C19.01 111.119 19.0245 107.699 19.0081 103.896L18.9782 96.9833L18.7152 96.7574C18.3793 96.4689 18.0467 96.4702 17.7553 96.7613L17.5252 96.9911V104.579C17.5252 112.042 17.5283 112.17 17.7127 112.354C17.9568 112.598 18.4951 112.603 18.735 112.363ZM38.3525 115.63C36.3738 115.353 35.2896 114.393 34.7992 112.485C34.6477 111.895 34.6334 111.219 34.6334 104.63C34.6334 97.8698 34.6444 97.3801 34.8096 96.7655C35.4229 94.4843 36.7398 93.6063 39.555 93.6016C42.3938 93.5969 43.7967 94.5837 44.2805 96.9254C44.4018 97.5122 44.4297 98.3215 44.4297 101.256V104.864H41.6142H38.7987L38.8253 108.524L38.8519 112.184L39.0732 112.363C39.3558 112.591 39.7541 112.591 40.0368 112.363C40.2579 112.184 40.2581 112.182 40.2859 109.694L40.3137 107.205H42.3717H44.4297V109.409C44.4297 111.052 44.3919 111.797 44.2814 112.335C43.9131 114.128 43.0099 115.117 41.4001 115.49C40.6358 115.667 39.1144 115.737 38.3525 115.63ZM40.2859 99.3902C40.2544 96.586 40.2535 96.5825 39.555 96.5825C38.8565 96.5825 38.8556 96.586 38.8241 99.3902L38.7963 101.868H39.555H40.3137L40.2859 99.3902ZM49.1168 115.637C47.0335 115.335 45.8836 114.388 45.418 112.592C45.3058 112.159 45.2734 111.492 45.2734 109.619V107.205H47.3357H49.3981L49.3986 109.428C49.3992 111.735 49.467 112.284 49.771 112.447C50.07 112.607 50.4264 112.553 50.6679 112.312C50.8954 112.084 50.898 112.062 50.898 110.375C50.898 108.85 50.8777 108.626 50.7073 108.275C50.6023 108.058 49.4857 106.715 48.2258 105.29C46.4895 103.325 45.8607 102.547 45.6277 102.075L45.3203 101.452L45.2893 99.3276C45.264 97.6012 45.2866 97.093 45.4099 96.6124C45.9123 94.6539 47.583 93.6033 50.1949 93.6033C52.9978 93.6033 54.6509 94.7964 55.0303 97.0932C55.0771 97.3764 55.1157 98.4613 55.1159 99.5041L55.1164 101.4H53.0072H50.8979V99.1955V96.9911L50.6678 96.7613C50.4144 96.5082 50.1863 96.4754 49.8246 96.64C49.4905 96.792 49.3992 97.2117 49.3986 98.5976C49.3977 100.475 49.3098 100.316 51.9531 103.224C54.4281 105.947 54.6681 106.252 54.8963 106.963C55.0889 107.563 55.1879 111.241 55.0375 112.206C54.7727 113.904 53.7205 115.033 51.979 115.486C51.3237 115.656 49.8034 115.737 49.1168 115.637ZM4.96352 104.63V94.0036H8.90076H12.838V95.4548V96.906H11.01H9.18199V99.387V101.868H10.9631H12.7443V103.366V104.864H10.9631H9.18199V110.06V115.257H7.07275H4.96352V104.63ZM58.3037 106.128V96.9996H56.9445H55.5852V95.5016V94.0036H60.413H65.2408V95.5016V96.9996H63.8346H62.4285V106.128V115.257H60.3661H58.3037V106.128ZM33.2112 90.35C31.281 90.1633 29.1703 89.6579 27.3214 88.9395C26.7543 88.7191 25.1736 87.9719 23.8088 87.2791C20.42 85.5587 18.5775 84.8421 16.1659 84.3063C15.2375 84.1001 12.8919 84.0231 12.0538 84.1714C10.0897 84.5188 8.04498 85.7035 5.83065 87.7769L4.96352 88.5889V85.3128V82.0368L5.44041 81.6086C6.89298 80.3042 9.30806 79.1798 11.5256 78.7754C12.865 78.5311 15.1052 78.5535 16.4871 78.825C18.5868 79.2375 20.5292 80.031 22.8217 81.4128C26.021 83.3412 28.6752 84.3904 31.7274 84.9333C33.3209 85.2168 36.6104 85.2433 38.102 84.9848C41.308 84.429 44.1485 83.3274 47.3357 81.4036C49.5999 80.0369 51.1701 79.3699 53.2958 78.8717C54.3137 78.6332 54.5765 78.6095 56.2414 78.606C58.2786 78.6017 58.9345 78.6994 60.6155 79.2579C62.2242 79.7924 63.7763 80.6633 64.7366 81.5704L65.2408 82.0466V85.331V88.6154L64.5611 87.9519C62.5232 85.9623 60.6632 84.8064 58.6901 84.3034C57.9663 84.1188 57.5772 84.0793 56.4872 84.0796C53.5397 84.0804 50.8347 84.8472 47.7576 86.5541C44.6194 88.2949 42.5042 89.1651 39.8831 89.7938C37.7157 90.3137 35.0951 90.5321 33.2112 90.35ZM32.8523 82.5183C30.9471 82.2822 29.0141 81.796 27.3086 81.1241C26.697 80.8831 24.9731 80.0694 23.4779 79.3159C20.1134 77.6204 18.1966 76.9013 15.7909 76.4323C14.6786 76.2154 12.2934 76.2149 11.091 76.4313C8.88181 76.8289 6.90067 77.7758 5.50255 79.1023L4.96352 79.6137V76.5868V73.5599L5.26819 73.291C6.65065 72.0707 8.84271 71.0998 11.0393 70.735C12.354 70.5167 15.0151 70.5844 16.2941 70.8687C18.4642 71.3511 20.388 72.1591 22.8283 73.613C27.3866 76.3289 30.799 77.3786 35.0553 77.3742C37.0359 77.3722 38.2659 77.2174 40.161 76.7318C42.4051 76.1566 44.7802 75.1338 47.06 73.7607C50.0389 71.9666 52.0125 71.1675 54.554 70.7262C55.7708 70.515 57.968 70.5185 59.1943 70.7337C61.3789 71.117 63.5581 72.0966 64.8803 73.2896L65.2408 73.6149V76.6044V79.5939L64.566 79.0139C61.6473 76.505 57.8321 75.6844 53.3175 76.5945C51.3116 76.9989 50.2724 77.4335 46.1867 79.5763C43.2188 81.1329 40.4107 82.054 37.4644 82.4373C36.4623 82.5676 33.6492 82.6171 32.8523 82.5183ZM32.2898 74.7065C29.5817 74.0429 26.8115 72.9291 23.7828 71.2862C20.7564 69.6445 18.1126 68.6999 15.4508 68.3091C14.2798 68.1372 13.6285 68.1271 12.389 68.2616C9.51217 68.5739 6.60735 69.6542 5.26819 70.9099L4.96352 71.1956V68.1921V65.1886L5.34383 64.8454C6.16551 64.104 7.28256 63.5208 8.8267 63.0269C12.0127 62.008 15.4167 62.18 19.5875 63.5705C21.7315 64.2853 23.4564 65.027 26.1262 66.382L28.3057 67.4883V60.9832V54.4782L28.0011 54.6654C27.2939 55.0998 26.115 55.6278 25.3717 55.8429C21.3542 57.0057 16.9889 55.3972 14.6505 51.8924C14.351 51.4434 14.1053 51.0694 14.1047 51.0611C14.1038 51.0529 13.7872 51.1493 13.4006 51.2754C11.281 51.9666 8.99844 51.9158 6.84107 51.1294C3.67119 49.974 1.34688 47.252 0.639718 43.8669C0.488584 43.1435 0.488584 41.2198 0.639718 40.4964C0.937776 39.0696 1.54645 37.6782 2.34054 36.6084C2.85231 35.919 3.99808 34.7898 4.56861 34.4128L4.93104 34.1732L4.80862 33.5898C4.25996 30.975 5.62015 28.2076 8.16175 26.7675C8.59919 26.5197 8.70938 26.4126 8.67856 26.2653C8.65701 26.1623 8.55054 25.7447 8.44196 25.3374C8.22075 24.5076 8.17973 23.2655 8.34673 22.4546C8.51742 21.6259 9.12556 20.4807 9.74771 19.8165C10.7285 18.7693 11.9195 18.1254 13.4202 17.8309L14.2095 17.676L13.9746 16.9148C13.7644 16.2337 13.7392 15.9863 13.7342 14.562C13.7282 12.8567 13.7865 12.5208 14.3118 11.2383C15.1257 9.25114 16.6472 7.63998 18.6032 6.69405C20.0035 6.01688 20.6887 5.87103 22.517 5.86096L24.0873 5.8523L24.4297 5.33862C24.9204 4.60235 26.6378 2.92193 27.4628 2.37081C28.7656 1.50042 30.0221 0.951947 31.6246 0.554059C32.7233 0.281282 34.9834 0.214937 36.2269 0.418962C38.0703 0.721442 39.9074 1.48888 41.459 2.60465C42.3544 3.24849 43.7758 4.70689 44.289 5.50819C44.5991 5.99238 44.6992 6.08518 44.8674 6.04457C47.7688 5.34411 51.2896 6.39397 53.3052 8.56065C54.7225 10.0841 55.2913 11.5454 55.3724 13.871C55.4165 15.1331 55.3127 16.2553 55.0661 17.1835C55.0234 17.3442 55.1172 17.4083 55.7269 17.6352C57.7644 18.3935 59.9216 20.548 60.7713 22.6734C61.1423 23.6012 61.2382 24.1837 61.1887 25.209L61.1444 26.1295L61.8099 26.4741C63.1568 27.1717 64.3082 28.6202 64.7322 30.1507C64.9475 30.9278 64.9985 32.755 64.8315 33.7085C64.6713 34.6232 64.5639 34.4311 65.7842 35.4129C67.1323 36.4976 68.2885 38.2662 68.6789 39.841C68.9289 40.8496 68.904 42.8678 68.6279 43.9605C67.9463 46.6588 66.052 48.9824 63.5065 50.2426C61.9614 51.0076 60.9581 51.2393 59.1474 51.2493C58.0744 51.2553 57.4901 51.2133 56.9132 51.0888C56.4835 50.996 56.1218 50.9342 56.1095 50.9513C54.9285 52.5897 53.717 53.6446 52.0698 54.469C50.3027 55.3533 48.6942 55.7375 46.7264 55.7453C45.2093 55.7513 44.4513 55.5905 43.0001 54.9551C42.5232 54.7463 42.0802 54.5525 42.0158 54.5244C41.9226 54.4839 41.8986 55.812 41.8986 60.9904C41.8986 64.5748 41.9133 67.5074 41.9314 67.5074C41.9494 67.5074 42.3607 67.292 42.8454 67.0288C47.7897 64.3431 52.1528 62.7966 55.7727 62.4467C59.1946 62.1158 62.8584 62.9946 64.6753 64.5819L65.147 64.9941V67.9937V70.9934L64.7848 70.6665C62.8796 68.9475 58.1885 67.8196 54.929 68.2969C52.1866 68.6984 49.5757 69.626 46.5153 71.2862C44.0794 72.6075 41.8317 73.5792 39.6956 74.2344C38.6497 74.5552 37.2515 74.9022 37.0005 74.9032C36.8449 74.9039 36.8364 74.1614 36.8364 60.6165V46.3292L37.366 46.8127C38.7856 48.1084 41.139 49.0147 43.7111 49.2563C48.2992 49.6871 52.5999 47.4983 53.6171 44.2149L53.772 43.7149L54.1159 44.1342C54.3051 44.3647 54.7124 44.7218 55.021 44.9276C56.9327 46.2026 59.42 45.9772 61.0279 44.3835C63.2027 42.2279 62.5653 38.5185 59.7811 37.1274C59.4308 36.9524 58.9588 36.7814 58.732 36.7474L58.3198 36.6857L58.5969 36.2504C59.065 35.5151 59.269 34.6755 59.2248 33.6665C59.1908 32.8894 59.1485 32.7167 58.8387 32.0907C58.2064 30.813 57.0914 29.9997 55.5732 29.7086C55.1415 29.6258 54.7744 29.5477 54.7574 29.5349C54.7404 29.5221 54.7926 29.4109 54.8733 29.2878C55.1125 28.9232 55.3904 28.0186 55.4525 27.4021C55.675 25.1926 54.0861 22.9786 51.6793 22.1445C50.9388 21.8878 50.0321 21.7261 49.3278 21.7251C49.0571 21.7247 48.8356 21.707 48.8356 21.6858C48.8356 21.6645 48.9841 21.4223 49.1655 21.1474C49.8713 20.0782 50.183 18.8365 50.1252 17.324C50.0927 16.473 50.0306 16.0903 49.8287 15.4983C48.9365 12.8825 46.5798 11.1528 43.8989 11.1463C43.0837 11.1443 42.011 11.3411 41.3987 11.6049C41.1495 11.7122 40.9322 11.8001 40.9158 11.8001C40.8995 11.8001 40.8353 11.5789 40.7733 11.3085C40.5889 10.5045 40.051 9.51625 39.4281 8.83691C38.2452 7.54675 36.751 6.85601 34.9524 6.76782C33.6809 6.70547 32.7884 6.89031 31.5951 7.46314C30.065 8.19765 28.8656 9.62409 28.4566 11.1959C28.321 11.7166 28.3598 11.7081 27.4152 11.4245C26.5907 11.177 25.0641 11.1522 24.2279 11.3727C21.0152 12.2199 19.004 15.3825 19.6194 18.6194C19.7824 19.4768 20.2265 20.5321 20.6697 21.115C20.8267 21.3214 20.9811 21.5328 21.0128 21.5848C21.0495 21.6449 20.7755 21.6863 20.2587 21.6987C18.4803 21.7415 16.9881 22.3582 15.7808 23.5492C14.594 24.7201 14.178 25.7746 14.2679 27.3841C14.3196 28.308 14.531 28.965 15.0001 29.6592C15.1515 29.8832 15.2753 30.0854 15.2753 30.1086C15.2753 30.1318 14.8767 30.1507 14.3894 30.1507C13.9021 30.1507 13.2799 30.1971 13.0067 30.2539C11.817 30.5009 10.7094 31.3267 10.2862 32.2823C9.70211 33.601 10.1667 35.4446 11.4314 36.8267L11.8979 37.3364L11.5477 37.393C10.9285 37.493 9.8565 38.0782 9.27105 38.636C8.21481 39.6422 7.76718 40.6241 7.76145 41.9476C7.75602 43.2137 8.26708 44.304 9.22093 45.0613C11.017 46.4871 13.7466 46.3881 15.663 44.8274L16.1912 44.3972L16.36 44.7875C16.6437 45.4438 17.3016 46.3804 17.8249 46.8732C19.6465 48.5886 22.3149 49.5305 25.3528 49.5305C28.4218 49.5305 31.0742 48.5846 32.9226 46.8309L33.4616 46.3195V60.6117V74.9039L33.2507 74.8971C33.1347 74.8934 32.7023 74.8076 32.2898 74.7065Z" fill="#E53233"/>
</svg>
